{"title":"The.infiltrator.2016.720p.brrip.x265.aac[GreatIndiaRipper].mkv","uid":15937213,"size":523503351,"categoryP":"video","categoryS":"movies","magnet":"?xt=urn:btih:a7dfe3488a7010b448f837ee1a63bd3544889440&amp;dn=The.infiltrator.2016.720p.brrip.x265.aac%5BGreatIndiaRipper%5D.mkv&amp;tr=udp%3A%2F%2Ftracker.leechers-paradise.org%3A6969&amp;tr=udp%3A%2F%2Fzer0day.ch%3A1337&amp;tr=udp%3A%2F%2Fopen.demonii.com%3A1337&amp;tr=udp%3A%2F%2Ftracker.coppersurfer.tk%3A6969&amp;tr=udp%3A%2F%2Fexodus.desync.com%3A6969","seeders":8,"leechers":3,"uploader":"greatindiaripper","files":1,"time":1475414529,"description":"General\r\n\r\nFormat                      : Matroska\r\nFormat version              : Version 4 / Version 2\r\nFile size                   : 499 MiB\r\nDuration                    : 2 h 7 min\r\nOverall bit rate            : 549 kb/s\r\nMovie name                  : The.infiltrator.2016.720p.brrip.x265.aac[GreatIndiaRipper]\r\n\r\n\r\nVideo\r\nID                          : 1\r\nFormat                      : HEVC\r\nFormat/Info                 : High Efficiency Video Coding\r\nFormat profile              :   @Main\r\nCodec ID                    : V_MPEGH/ISO/HEVC\r\nDuration                    : 2 h 7 min\r\nWidth                       : 1 280 pixels\r\nHeight                      : 536 pixels\r\nDisplay aspect ratio        : 2.40:1\r\nFrame rate mode             : Constant\r\nFrame rate                  : 23.976 (24000/1001) FPS\r\nColor space                 : YUV\r\nChroma subsampling          : 4:2:0\r\nBit depth                   : 8 bits\r\nBits/(Pixel*Frame)          : 0.027\r\nStream size                 : 410 MiB (82%)\r\nTitle                       : The.infiltrator.2016.720p.brrip.x265.aac[GreatIndiaRipper]\r\n\r\n\r\nAudio\r\nID                          : 2\r\nFormat                      : AAC\r\nFormat/Info                 : Advanced Audio Codec\r\nFormat profile              : LC\r\nCodec ID                    : A_AAC\r\nDuration                    : 2 h 7 min\r\nBit rate                    : 96.0 kb/s\r\nChannel(s)                  : 2 channels\r\nChannel positions           : Front: L R\r\nSampling rate               : 48.0 kHz\r\nFrame rate                  : 46.875 FPS (1024 spf)\r\nCompression mode            : Lossy\r\nDelay relative to video     : -21 ms\r\nStream size                 : 87.4 MiB (17%)\r\nTitle                       : The.infiltrator.2016.720p.brrip.x265.aac[GreatIndiaRipper]\r\nDefault                     : Yes\r\nForced                      : No","torrent":{"xt":"urn:btih:a7dfe3488a7010b448f837ee1a63bd3544889440","amp;dn":"The.infiltrator.2016.720p.brrip.x265.aac%5BGreatIndiaRipper%5D.mkv","amp;tr":["udp%3A%2F%2Ftracker.leechers-paradise.org%3A6969","udp%3A%2F%2Fzer0day.ch%3A1337","udp%3A%2F%2Fopen.demonii.com%3A1337","udp%3A%2F%2Ftracker.coppersurfer.tk%3A6969","udp%3A%2F%2Fexodus.desync.com%3A6969"],"infoHash":"a7dfe3488a7010b448f837ee1a63bd3544889440","infoHashBuffer":{"type":"Buffer","data":[167,223,227,72,138,112,16,180,72,248,55,238,26,99,189,53,68,136,148,64]},"announce":[],"urlList":[]}}